<?xml version="1.0" encoding="UTF-8" standalone="no"?> <svg xmlns="http://www.w3.org/2000/svg" viewBox="0 0 48 48"><title>Programming And Data vol.1</title><g id="Layer_10" data-name="Layer 10"><path d="M24,45.66211A21.66211,21.66211,0,1,0,2.33789,24,21.68689,21.68689,0,0,0,24,45.66211ZM24,4.33789A19.66211,19.66211,0,1,1,4.33789,24,19.68428,19.68428,0,0,1,24,4.33789Z"/><path d="M16.62158,27.34961a.99989.99989,0,0,0,1.41406-1.41406l-2.51123-2.51123,2.51123-2.51123A.99989.99989,0,1,0,16.62158,19.499l-3.21826,3.21827a.99964.99964,0,0,0,0,1.41406Z"/><path d="M29.56738,27.34961a.99964.99964,0,0,0,1.41407,0l3.21826-3.21826a.99964.99964,0,0,0,0-1.41406L30.98145,19.499a.9999.9999,0,1,0-1.41407,1.41407l2.51123,2.51123-2.51123,2.51123A.99964.99964,0,0,0,29.56738,27.34961Z"/><path d="M22.26709,30.73242a.99747.99747,0,0,0,1.23975-.68017l3.47558-11.916a.9999.9999,0,1,0-1.91992-.55957l-3.47559,11.916A.9999.9999,0,0,0,22.26709,30.73242Z"/></g></svg>