<?xml version="1.0" encoding="UTF-8"?>
<!DOCTYPE svg PUBLIC "-//W3C//DTD SVG 1.1//EN" "http://www.w3.org/Graphics/SVG/1.1/DTD/svg11.dtd">
<!-- Creator: CorelDRAW -->
<svg xmlns="http://www.w3.org/2000/svg" xml:space="preserve" width="1.70666in" height="1.70666in" version="1.1" style="shape-rendering:geometricPrecision; text-rendering:geometricPrecision; image-rendering:optimizeQuality; fill-rule:evenodd; clip-rule:evenodd"
viewBox="0 0 1707 1707"
 xmlns:xlink="http://www.w3.org/1999/xlink">
 <defs>
  <style type="text/css">
   <![CDATA[
    .fil0 {fill:black}
   ]]>
  </style>
 </defs>
 <g id="Layer_x0020_1">
  <metadata id="CorelCorpID_0Corel-Layer"/>
  <g id="_210368520">
   <g>
    <g id="_210368424">
     <path class="fil0" d="M1613 1629l-1520 0c-51,0 -93,-42 -93,-93l0 -1365c0,-52 42,-93 93,-93l1520 0c52,0 94,41 94,93l0 1365c0,51 -42,93 -94,93zm-1520 -1508c-27,0 -50,22 -50,50l0 1365c0,27 23,50 50,50l1520 0c28,0 50,-23 50,-50l0 -1365c0,-28 -22,-50 -50,-50l-1520 0z"/>
    </g>
    <g id="_210368712">
     <path class="fil0" d="M1550 1494l-1394 0c-12,0 -21,-9 -21,-21l0 -1059c0,-12 9,-21 21,-21l1394 0c12,0 22,9 22,21l0 1059c0,12 -10,21 -22,21zm-1372 -43l1351 0 0 -1015 -1351 0 0 1015z"/>
    </g>
    <g id="_210368976">
     <path class="fil0" d="M256 329c-40,0 -72,-32 -72,-72 0,-40 32,-72 72,-72 40,0 72,32 72,72 0,40 -32,72 -72,72zm0 -101c-16,0 -29,13 -29,29 0,16 13,29 29,29 16,0 29,-13 29,-29 0,-16 -13,-29 -29,-29z"/>
    </g>
    <g id="_210369168">
     <path class="fil0" d="M448 329c-40,0 -73,-32 -73,-72 0,-40 33,-72 73,-72 39,0 72,32 72,72 0,40 -33,72 -72,72zm0 -101c-16,0 -29,13 -29,29 0,16 13,29 29,29 15,0 28,-13 28,-29 0,-16 -13,-29 -28,-29z"/>
    </g>
    <g id="_210369000">
     <path class="fil0" d="M639 329c-40,0 -72,-32 -72,-72 0,-40 32,-72 72,-72 40,0 72,32 72,72 0,40 -32,72 -72,72zm0 -101c-16,0 -29,13 -29,29 0,16 13,29 29,29 16,0 29,-13 29,-29 0,-16 -13,-29 -29,-29z"/>
    </g>
    <g id="_210369144">
     <path class="fil0" d="M1454 325l-466 0c-38,0 -69,-30 -69,-68 0,-38 31,-69 69,-69l466 0c38,0 69,31 69,69 0,38 -31,68 -69,68zm-466 -93c-14,0 -26,11 -26,25 0,14 12,25 26,25l466 0c14,0 26,-11 26,-25 0,-14 -12,-25 -26,-25l-466 0z"/>
    </g>
    <g id="_210368928">
     <path class="fil0" d="M753 911l-504 0c-12,0 -21,-10 -21,-22l0 -387c0,-12 9,-22 21,-22l504 0c12,0 22,10 22,22l0 387c0,12 -10,22 -22,22zm-482 -43l461 0 0 -344 -461 0 0 344z"/>
    </g>
    <g id="_210368592">
     <path class="fil0" d="M1457 911l-504 0c-12,0 -21,-10 -21,-22l0 -387c0,-12 9,-22 21,-22l504 0c12,0 22,10 22,22l0 387c0,12 -10,22 -22,22zm-482 -43l461 0 0 -344 -461 0 0 344z"/>
    </g>
    <g id="_210368880">
     <path class="fil0" d="M1205 825c-12,0 -21,-9 -21,-21l0 -216c0,-12 9,-22 21,-22 12,0 22,10 22,22l0 216c0,12 -10,21 -22,21z"/>
    </g>
    <g id="_210368904">
     <path class="fil0" d="M1304 609l-197 0c-12,0 -22,-9 -22,-21 0,-12 10,-22 22,-22l197 0c12,0 21,10 21,22 0,12 -9,21 -21,21z"/>
    </g>
    <g id="_210368808">
     <path class="fil0" d="M753 1407l-504 0c-12,0 -21,-10 -21,-22l0 -387c0,-12 9,-22 21,-22l504 0c12,0 22,10 22,22l0 387c0,12 -10,22 -22,22zm-482 -43l461 0 0 -345 -461 0 0 345z"/>
    </g>
    <g id="_210369648">
     <path class="fil0" d="M501 1321c-12,0 -21,-10 -21,-21l0 -217c0,-12 9,-21 21,-21 12,0 22,9 22,21l0 217c0,11 -10,21 -22,21z"/>
    </g>
    <g id="_210369744">
     <path class="fil0" d="M600 1105l-197 0c-12,0 -22,-10 -22,-22 0,-12 10,-21 22,-21l197 0c12,0 21,9 21,21 0,12 -9,22 -21,22z"/>
    </g>
    <g id="_210369936">
     <path class="fil0" d="M1457 1407l-504 0c-12,0 -21,-10 -21,-22l0 -387c0,-12 9,-22 21,-22l504 0c12,0 22,10 22,22l0 387c0,12 -10,22 -22,22zm-482 -43l461 0 0 -345 -461 0 0 345z"/>
    </g>
    <g>
     <g id="_210369624">
      <path class="fil0" d="M644 611l-285 0c-12,0 -22,-10 -22,-22 0,-12 10,-21 22,-21l285 0c12,0 22,9 22,21 0,12 -10,22 -22,22z"/>
     </g>
     <g id="_210369768">
      <path class="fil0" d="M644 717l-285 0c-12,0 -22,-9 -22,-21 0,-12 10,-22 22,-22l285 0c12,0 22,10 22,22 0,12 -10,21 -22,21z"/>
     </g>
     <g id="_210369480">
      <path class="fil0" d="M644 824l-285 0c-12,0 -22,-10 -22,-22 0,-12 10,-22 22,-22l285 0c12,0 22,10 22,22 0,12 -10,22 -22,22z"/>
     </g>
    </g>
    <g>
     <g id="_210369576">
      <path class="fil0" d="M1348 1107l-285 0c-12,0 -22,-10 -22,-22 0,-12 10,-21 22,-21l285 0c12,0 22,9 22,21 0,12 -10,22 -22,22z"/>
     </g>
     <g id="_210369384">
      <path class="fil0" d="M1348 1213l-285 0c-12,0 -22,-10 -22,-22 0,-12 10,-21 22,-21l285 0c12,0 22,9 22,21 0,12 -10,22 -22,22z"/>
     </g>
     <g id="_210370320">
      <path class="fil0" d="M1348 1319l-285 0c-12,0 -22,-9 -22,-21 0,-12 10,-22 22,-22l285 0c12,0 22,10 22,22 0,12 -10,21 -22,21z"/>
     </g>
    </g>
   </g>
  </g>
 </g>
</svg>
